<svg id="Layer_1" data-name="Layer 1" xmlns="http://www.w3.org/2000/svg" viewBox="0 0 7680 4320"><defs><style>.cls-1{fill:#326ccc;}</style></defs><path class="cls-1" d="M2802.06,3053.0556q235.83146-141.71837,472.784-281.55937,236.95507-139.83136,475.026-277.76023,237.0288-137.32507,475.14855-272.75547,239.16123-136.02358,479.4085-270.12577c159.28153-88.909,317.62072-176.46743,477.00713-263.75193q29.5065-16.15859,59.02882-32.28824c13.88748-7.58812,32.48395-21.89262,28.43016-40.34345-3.68245-16.76069-26.57828-17.76209-38.99654-10.97675q-244.78306,133.74946-488.505,269.42957-240.3897,133.84059-479.70131,269.60543-239.30907,135.76334-477.52475,273.442-239.25333,138.27849-477.38818,278.48028-238.13226,140.20031-475.1305,282.315-28.85166,17.30075-57.68632,34.62976c-12.35672,7.42553-26.72409,27.44084-17.03919,41.7993,10.30619,15.27955,33.01761,7.14373,45.13863-.14017Z"/><path class="cls-1" d="M2819.58008,3030.5102q62.75136-156.63216,121.958-314.6523,59.1855-158.01348,114.76555-317.34634,55.57536-159.31909,107.51738-319.87479,51.9375-160.54189,100.2141-322.23744,48.27321-161.68137,92.85507-324.4345,5.65081-20.62888,11.24211-41.274c1.92851-7.11783,3.69741-14.16007-.82892-20.87063-3.983-5.905-12.19366-8.80492-19.04038-8.58683-16.20908.5163-39.32048,12.50842-43.96636,29.65568q-44.126,162.8627-91.91846,324.70111-47.80528,161.82039-99.28419,322.52516-51.47437,160.69095-106.59482,320.1834-55.11576,159.47871-113.84969,317.67607-58.72811,158.184-121.04946,315.00291-7.89914,19.87678-15.85556,39.7307c-6.0219,15.0311,3.12049,29.99095,19.8693,29.45746,17.93036-.57113,37.16054-12.66783,43.96636-29.65568Z"/><path class="cls-1" d="M3261.36569,1344.63538l-40.99469,53.32583-40.82872,53.10994-23.06988,30.00928,55.64538,14.80379a515.3699,515.3699,0,0,1,30.98256-43.34232q4.69274-5.89429,9.55527-11.6503l-6.01017,7.109a523.67551,523.67551,0,0,1,52.94079-54.14837q8.00277-7.07772,16.29012-13.82368l-7.7628,6.31864a519.0211,519.0211,0,0,1,54.94464-39.07367q8.03976-4.95957,16.25892-9.61915l-47.76308-6.14622q9.00714,53.4432,18.01427,106.8864,8.96187,53.17464,17.92373,106.34927l10.04815,59.62a13.07193,13.07193,0,0,0,5.0472,8.68051,14.581,14.581,0,0,0,8.913,5.256,25.52071,25.52071,0,0,0,11.94911.44323,33.7286,33.7286,0,0,0,13.08727-3.403l8.76654-4.83053a52.07289,52.07289,0,0,0,13.773-13.42768c4.2196-6.68278,7.25634-13.98208,5.89066-22.08524l-18.01425-106.88639q-8.96187-53.17464-17.92374-106.34928-5.02407-29.81-10.04816-59.62a17.32177,17.32177,0,0,0-7.46994-11.07465,18.7613,18.7613,0,0,0-10.34255-3.3302,26.38358,26.38358,0,0,0-12.34122.51865,52.07289,52.07289,0,0,0-17.60937,7.74q-21.41986,12.15441-41.61272,26.31339c-16.10607,11.29871-31.54494,23.56625-46.51158,36.328q-18.74025,15.97945-35.91994,33.67676c-13.48654,13.89463-26.19027,28.57548-38.31387,43.66829q-15.49256,19.28685-29.08721,40.00084-1.66515,2.5391-3.29994,5.09787a26.38371,26.38371,0,0,0-5.104,11.24829,18.76135,18.76135,0,0,0-.78668,10.837,13.072,13.072,0,0,0,5.0472,8.68051,14.581,14.581,0,0,0,8.913,5.256l7.70467.93674a44.24906,44.24906,0,0,0,17.33172-3.89647l8.76653-4.83054a52.07285,52.07285,0,0,0,13.773-13.42767l40.99469-53.32583,40.82871-53.11,23.06989-30.00927a26.38357,26.38357,0,0,0,5.104-11.24829,18.76127,18.76127,0,0,0,.78668-10.837,13.072,13.072,0,0,0-5.04719-8.68051,14.581,14.581,0,0,0-8.913-5.256l-7.70467-.93674a44.24884,44.24884,0,0,0-17.33171,3.89647l-8.76654,4.83053a52.07285,52.07285,0,0,0-13.773,13.42768Z"/><path class="cls-1" d="M4977.237,1630.16275l88.62163,12.01348,88.62162,12.01347,49.934,6.769-12.16464-28.52072q-11.90811,27.14918-25.6113,53.46132-3.9141,7.51155-7.97178,14.947l4.09514-7.501q-14.46135,26.48431-30.69726,51.94521-4.61312,7.22963-9.36639,14.36837a26.38373,26.38373,0,0,0-5.104,11.24828,18.76136,18.76136,0,0,0-.78668,10.837,13.072,13.072,0,0,0,5.0472,8.68052,14.581,14.581,0,0,0,8.913,5.256l7.70467.93673a44.24887,44.24887,0,0,0,17.33172-3.89646l8.76653-4.83054a52.07285,52.07285,0,0,0,13.773-13.42767q16.65936-25.03263,31.59652-51.15456c11.28687-19.7495,22.023-39.83859,31.95025-60.30737q7.39245-15.24238,14.19511-30.761l2.01769-7.49455a14.58094,14.58094,0,0,0-1.53439-10.23288,8.66088,8.66088,0,0,0-3.735-5.53732,14.581,14.581,0,0,0-8.913-5.256l-88.62162-12.01347-88.62162-12.01347-49.934-6.769a25.52072,25.52072,0,0,0-11.94911-.44323,33.72865,33.72865,0,0,0-13.08728,3.403,41.91686,41.91686,0,0,0-12.64793,7.98985,38.627,38.627,0,0,0-9.89157,10.26836l-4.09514,7.501a25.32893,25.32893,0,0,0-1.79552,14.58424l2.62444,6.28639a19.19882,19.19882,0,0,0,11.33571,7.65009Z"/><path class="cls-1" d="M5307.7085,1326.2096l-15.34714,98.06916-15.34714,98.06916-8.66539,55.37238a14.581,14.581,0,0,0,1.53439,10.23287,13.072,13.072,0,0,0,6.15773,7.93146,18.76125,18.76125,0,0,0,10.34254,3.3302,26.38358,26.38358,0,0,0,12.34122-.51865c9.35663-2.35618,18.66374-7.01056,25.37216-14.05862l6.01018-7.109a34.524,34.524,0,0,0,6.11283-14.99557l23.08449-126.27045,23.08449-126.27046,13.00022-71.1102-65.02444,28.5634q16.69949,32.60866,33.09618,65.37117,16.39512,32.76273,32.48333,65.67785,16.08786,32.9147,31.86765,65.97878,15.77944,33.06366,31.24923,66.27392,15.39952,33.05951,30.49081,66.26146,1.92068,4.22564,3.83634,8.45356a14.36959,14.36959,0,0,0,8.09061,6.21918,19.36491,19.36491,0,0,0,10.94978,2.36765,32.756,32.756,0,0,0,12.9103-2.44174,39.59332,39.59332,0,0,0,13.188-6.28526c7.32876-5.26991,14.808-12.1873,17.86811-20.92868l2.01769-7.49456a19.19877,19.19877,0,0,0-2.84662-13.37606q-15.12151-33.36971-30.55191-66.59825-15.43158-33.22744-31.17347-66.30959-15.74176-33.08161-31.79226-66.01514-16.05036-32.933-32.40824-65.71493-16.28364-32.63312-32.87067-65.11367-2.111-4.13384-4.227-8.26516l-4.8455-4.78826a18.76125,18.76125,0,0,0-10.34255-3.3302,17.26182,17.26182,0,0,0-8.09677.02514,33.7283,33.7283,0,0,0-13.08728,3.403,64.81561,64.81561,0,0,0-16.52932,11.14917,40.72086,40.72086,0,0,0-12.123,22.1046l-23.0845,126.27045L5281.349,1506.6101l-13.00021,71.1102,67.871-15.18734,15.34714-98.06916,15.34714-98.06915,8.66539-55.37239a14.58092,14.58092,0,0,0-1.53439-10.23287,13.072,13.072,0,0,0-6.15772-7.93146,18.76136,18.76136,0,0,0-10.34255-3.3302,26.38371,26.38371,0,0,0-12.34122.51865c-9.35662,2.35618-18.66374,7.01056-25.37216,14.05862-5.956,6.25758-10.756,13.36955-12.123,22.1046Z"/><path class="cls-1" d="M5355.58811,1546.3218l42.76783-7.76768,42.76783-7.76769,24.08762-4.3749a38.62677,38.62677,0,0,0,13.2261-5.32471,41.91644,41.91644,0,0,0,12.14606-8.73391,33.72831,33.72831,0,0,0,8.05775-10.85954,25.52063,25.52063,0,0,0,4.06526-11.24506l-.22217-7.08968a17.32182,17.32182,0,0,0-7.46994-11.07465l-6.49021-2.86183a34.52425,34.52425,0,0,0-16.19356.05028l-42.76782,7.76769-42.76783,7.76768-24.08763,4.3749a38.62713,38.62713,0,0,0-13.2261,5.32471,41.91689,41.91689,0,0,0-12.14606,8.73391,33.72828,33.72828,0,0,0-8.05774,10.85954,25.52069,25.52069,0,0,0-4.06527,11.24506l.22217,7.08968a17.32175,17.32175,0,0,0,7.46995,11.07465l6.49021,2.86183a34.52394,34.52394,0,0,0,16.19355-.05028Z"/><path class="cls-1" d="M3302.7101,927.41548l19.785,99.731,19.66507,99.1266,11.15153,56.212a13.072,13.072,0,0,0,5.04719,8.68052,14.58094,14.58094,0,0,0,8.913,5.256,25.52071,25.52071,0,0,0,11.94911.44323,33.72825,33.72825,0,0,0,13.08727-3.403l8.76654-4.83053a52.073,52.073,0,0,0,13.773-13.42767l4.09515-7.501a25.329,25.329,0,0,0,1.79552-14.58424l-9.73537-90.47333-9.73536-90.47332-2.7061-25.14852c-.79183-7.35862-1.78-14.72807-2.03368-22.13108l.22217,7.08968a57.247,57.247,0,0,1,1.52277-16.34924l-2.01769,7.49456a32.36943,32.36943,0,0,1,2.74107-6.87567l-4.09514,7.501a27.64743,27.64743,0,0,1,2.70854-3.954l-6.01018,7.109a27.49248,27.49248,0,0,1,3.49224-3.42023l-7.76279,6.31864a26.39862,26.39862,0,0,1,3.49867-2.35073l-8.76653,4.83053a25.34226,25.34226,0,0,1,3.70378-1.62514L3376.922,933.57a26.24092,26.24092,0,0,1,5.06868-1.11294l-8.48888.987a31.65357,31.65357,0,0,1,6.95178.074l-7.70467-.93673a48.43,48.43,0,0,1,13.13419,3.815l-6.49021-2.86184c10.41006,4.62059,19.6816,11.62949,27.91169,19.432q15.81678,14.99514,31.61525,30.00962c5.79205,5.4979,11.67,10.91935,17.36254,16.52035l-4.8455-4.78827c3.87543,3.84534,7.59115,8.005,9.72593,13.09686l-2.62445-6.28638a20.26614,20.26614,0,0,1,1.45828,6.85058l-.22217-7.08968a20.17277,20.17277,0,0,1-.60182,5.0145l2.0177-7.49456a24.74342,24.74342,0,0,1-2.0418,5.09872l4.09514-7.501a37.03053,37.03053,0,0,1-4.05532,5.84083l6.01018-7.109c-5.04883,5.92272-11.32282,10.7736-17.33437,15.66752l7.76279-6.31863a490.46347,490.46347,0,0,1-55.68042,39.158q-8.19414,4.94724-16.57765,9.56991l8.76653-4.83053q-2.46607,1.35786-4.9461,2.68991l-8.76654,4.83054a39.59321,39.59321,0,0,0-10.76788,9.87315,22.12445,22.12445,0,0,0-5.05266,7.305,25.52072,25.52072,0,0,0-4.06526,11.24506l.22217,7.08969,2.62445,6.28638a14.36953,14.36953,0,0,0,8.0906,6.21918,19.365,19.365,0,0,0,10.94978,2.36766c9.59437.71745,19.18888,1.46391,28.74275,2.61522l-7.70468-.93673c16.6017,2.02868,33.16168,5.34088,48.55387,12.06718l-6.49021-2.86183a92.45823,92.45823,0,0,1,27.79867,18.63488l-4.8455-4.78826a78.33343,78.33343,0,0,1,17.09292,24.93035l-2.62445-6.28638a59.61416,59.61416,0,0,1,4.60974,20.75748l-.22217-7.08968a53.1051,53.1051,0,0,1-1.71158,14.78635l2.01769-7.49456a54.79951,54.79951,0,0,1-4.803,11.90912l4.09514-7.501a61.51091,61.51091,0,0,1-6.82256,9.84109l6.01018-7.109a71.0095,71.0095,0,0,1-9.01976,8.77813l7.7628-6.31864a81.37575,81.37575,0,0,1-11.74273,7.8739l8.76654-4.83054a88.87781,88.87781,0,0,1-14.7486,6.39115l8.84283-2.90944a89.32783,89.32783,0,0,1-17.18658,3.75642l8.48888-.987a129.87463,129.87463,0,0,1-29.91787-.33954l7.70468.93674c-19.11438-2.3586-37.61033-7.94871-55.96481-13.58278a25.52071,25.52071,0,0,0-11.94911-.44323,33.7286,33.7286,0,0,0-13.08727,3.403,41.91662,41.91662,0,0,0-12.64793,7.98985,38.62689,38.62689,0,0,0-9.89158,10.26836l-4.09514,7.501a25.32893,25.32893,0,0,0-1.79552,14.58424l2.62444,6.28639a19.19883,19.19883,0,0,0,11.33572,7.6501c13.28238,4.07714,26.60336,8.12471,40.21844,10.95479a252.75315,252.75315,0,0,0,27.54708,4.00847,128.04976,128.04976,0,0,0,20.53357.37267c5.72833-.37839,11.46226-1.04042,17.13428-1.91009q3.83653-.58824,7.6087-1.52363a141.92393,141.92393,0,0,0,23.208-7.82118,139.75951,139.75951,0,0,0,21.80947-12.03364c4.81633-3.2649,9.29439-7.11019,13.74379-10.8122a69.788,69.788,0,0,0,5.43553-5.026,146.41609,146.41609,0,0,0,10.81249-12.64327,58.83277,58.83277,0,0,0,4.08139-6.01842c3.9262-6.65457,7.69332-13.41551,9.74423-20.894,1.33719-4.876,2.8103-9.70871,3.39982-14.74008a94.79315,94.79315,0,0,0,.10728-14.63051,58.46709,58.46709,0,0,0-2.71724-15.60594c-3.93309-12.33574-10.04983-23.907-18.81727-33.46415-9.02837-9.84158-19.02568-18.36936-31.04429-24.28254a166.02344,166.02344,0,0,0-41.71907-14.22676c-14.81474-2.89094-29.92565-4.38035-44.96009-5.59114q-4.60111-.37054-9.20481-.70782l-6.76534,55.21667a577.231,577.231,0,0,0,56.506-34.08563q11.67568-8.11077,22.8663-16.89168c6.24138-4.89784,12.39264-9.91459,18.4925-14.98689,3.3108-2.75308,6.64764-5.49988,9.71591-8.52575a139.90167,139.90167,0,0,0,9.80713-11.22485,35.93787,35.93787,0,0,0,3.40483-4.85939c2.224-3.88269,4.87929-7.96452,6.22878-12.33338,1.26357-4.09074,2.80375-8.53132,2.87142-12.91605.06146-3.9822.17015-8.49372-.99016-12.43078a75.76225,75.76225,0,0,0-3.40812-8.48084,27.5338,27.5338,0,0,0-1.35522-2.73666,46.26853,46.26853,0,0,0-7.58569-9.45227c-8.46837-8.52484-17.30546-16.68808-26.01971-24.95977l-22.4869-21.34487c-6.285-5.96578-12.5022-11.91427-19.61063-16.91019a89.96323,89.96323,0,0,0-10.28779-6.29753c-3.68979-1.91331-7.544-3.54615-11.36574-5.15879a54.65186,54.65186,0,0,0-5.32308-1.93994,42.47413,42.47413,0,0,0-5.49625-1.29817,88.0156,88.0156,0,0,0-12.47725-1.38416,78.60278,78.60278,0,0,0-13.126,1.28177q-1.18552.18-2.34946.47372a111.91258,111.91258,0,0,0-10.94678,3.54833c-.75848.2786-1.50555.582-2.234.93243-3.667,1.764-7.27809,3.79687-10.75248,5.91047a23.91717,23.91717,0,0,0-2.093,1.43224c-3.26994,2.49929-6.58151,5.06943-9.60839,7.87362a26.94749,26.94749,0,0,0-2.01392,2.09691,109.50686,109.50686,0,0,0-7.4844,9.01918c-.49741.71438-.94634,1.45668-1.37779,2.21217-1.79493,3.143-3.67553,6.31818-5.16032,9.63515-1.7362,3.8786-2.63388,8.167-3.69359,12.23609a45.22777,45.22777,0,0,0-1.08033,5.49218c-.80368,6.09453-.44058,12.30154-.20423,18.41469.35127,9.08583,1.63958,18.14976,2.61166,27.18354l6.66625,61.95122,6.63325,61.64454,6.66625,61.95123,1.61706,15.02777,67.42671-29.3667-19.785-99.731-19.66507-99.12661-11.15153-56.212a13.072,13.072,0,0,0-5.04719-8.68052,14.581,14.581,0,0,0-8.913-5.256,25.52075,25.52075,0,0,0-11.94912-.44322,33.72846,33.72846,0,0,0-13.08727,3.40295l-8.76653,4.83054a52.07285,52.07285,0,0,0-13.773,13.42767c-4.14695,6.5677-7.474,14.10414-5.89067,22.08525Z"/><path class="cls-1" d="M5204.64736,1963.25419a32.75589,32.75589,0,0,0,12.91029-2.44174,49.31543,49.31543,0,0,0,23.95583-16.15841,32.75581,32.75581,0,0,0,7.10023-11.05553l2.0177-7.49456a19.19881,19.19881,0,0,0-2.84662-13.37606l-4.8455-4.78827a25.329,25.329,0,0,0-14.19488-3.79857,32.75594,32.75594,0,0,0-12.9103,2.44175,49.31525,49.31525,0,0,0-23.95583,16.15841,32.75592,32.75592,0,0,0-7.10023,11.05552l-2.01769,7.49456a19.19879,19.19879,0,0,0,2.84661,13.37607l4.8455,4.78826a25.329,25.329,0,0,0,14.19489,3.79857Z"/><path class="cls-1" d="M5216.99019,2148.39668a32.756,32.756,0,0,0,12.9103-2.44175,49.31525,49.31525,0,0,0,23.95583-16.15841,32.756,32.756,0,0,0,7.10023-11.05553l2.01769-7.49455a19.19879,19.19879,0,0,0-2.84662-13.37607l-4.8455-4.78826a25.32884,25.32884,0,0,0-14.19488-3.79857,32.756,32.756,0,0,0-12.9103,2.44174,49.31543,49.31543,0,0,0-23.95583,16.15841,32.75611,32.75611,0,0,0-7.10023,11.05553l-2.01769,7.49455a19.19879,19.19879,0,0,0,2.84661,13.37607l4.8455,4.78827a25.329,25.329,0,0,0,14.19489,3.79857Z"/><path class="cls-1" d="M5223.1616,2308.8535a32.75591,32.75591,0,0,0,12.9103-2.44175,49.31543,49.31543,0,0,0,23.95583-16.15841,32.756,32.756,0,0,0,7.10023-11.05553l2.01769-7.49455a19.19879,19.19879,0,0,0-2.84661-13.37607l-4.8455-4.78826a25.32885,25.32885,0,0,0-14.19489-3.79857,32.75589,32.75589,0,0,0-12.91029,2.44174,49.31543,49.31543,0,0,0-23.95583,16.15841,32.75581,32.75581,0,0,0-7.10023,11.05553l-2.0177,7.49455a19.19885,19.19885,0,0,0,2.84662,13.37607l4.8455,4.78826a25.32893,25.32893,0,0,0,14.19488,3.79858Z"/><path class="cls-1" d="M5229.333,2426.1104a32.756,32.756,0,0,0,12.9103-2.44174,49.31543,49.31543,0,0,0,23.95583-16.15841,32.75611,32.75611,0,0,0,7.10023-11.05553l2.01769-7.49456a19.19872,19.19872,0,0,0-2.84662-13.37606l-4.84549-4.78827a25.32905,25.32905,0,0,0-14.19489-3.79857,32.756,32.756,0,0,0-12.9103,2.44175,49.31525,49.31525,0,0,0-23.95583,16.15841,32.75607,32.75607,0,0,0-7.10023,11.05552l-2.01769,7.49456a19.19879,19.19879,0,0,0,2.84662,13.37607l4.8455,4.78826a25.329,25.329,0,0,0,14.19488,3.79857Z"/><path class="cls-1" d="M5229.333,2580.39581a32.756,32.756,0,0,0,12.9103-2.44175,49.31543,49.31543,0,0,0,23.95583-16.15841,32.75611,32.75611,0,0,0,7.10023-11.05553l2.01769-7.49455a19.19874,19.19874,0,0,0-2.84662-13.37607l-4.84549-4.78826a25.32889,25.32889,0,0,0-14.19489-3.79857,32.756,32.756,0,0,0-12.9103,2.44174,49.31543,49.31543,0,0,0-23.95583,16.15841,32.75611,32.75611,0,0,0-7.10023,11.05553l-2.01769,7.49455a19.19879,19.19879,0,0,0,2.84662,13.37607l4.8455,4.78826a25.32893,25.32893,0,0,0,14.19488,3.79858Z"/><path class="cls-1" d="M5235.50444,2753.19546a32.75589,32.75589,0,0,0,12.91029-2.44175,49.31525,49.31525,0,0,0,23.95583-16.15841,32.75577,32.75577,0,0,0,7.10023-11.05552l2.0177-7.49456a19.19885,19.19885,0,0,0-2.84662-13.37607l-4.8455-4.78826a25.329,25.329,0,0,0-14.19488-3.79857,32.75593,32.75593,0,0,0-12.9103,2.44174,49.31543,49.31543,0,0,0-23.95583,16.15841,32.756,32.756,0,0,0-7.10023,11.05553l-2.01769,7.49456a19.19876,19.19876,0,0,0,2.84661,13.37606l4.8455,4.78827a25.329,25.329,0,0,0,14.19489,3.79857Z"/><path class="cls-1" d="M5260.1901,2901.30945a32.75615,32.75615,0,0,0,12.9103-2.44175,49.31543,49.31543,0,0,0,23.95583-16.15841,32.75611,32.75611,0,0,0,7.10023-11.05553l2.01769-7.49455a19.19879,19.19879,0,0,0-2.84661-13.37607l-4.8455-4.78826a25.329,25.329,0,0,0-14.19489-3.79858,32.756,32.756,0,0,0-12.9103,2.44175,49.31543,49.31543,0,0,0-23.95583,16.15841,32.75611,32.75611,0,0,0-7.10023,11.05553l-2.01769,7.49455a19.19879,19.19879,0,0,0,2.84662,13.37607l4.8455,4.78826a25.32893,25.32893,0,0,0,14.19488,3.79858Z"/><path class="cls-1" d="M5254.01869,3074.1091a32.75589,32.75589,0,0,0,12.91029-2.44175,49.31525,49.31525,0,0,0,23.95583-16.15841,32.75577,32.75577,0,0,0,7.10023-11.05552l2.0177-7.49456a19.19885,19.19885,0,0,0-2.84662-13.37607l-4.8455-4.78826a25.32884,25.32884,0,0,0-14.19488-3.79857,32.7559,32.7559,0,0,0-12.9103,2.44174,49.31543,49.31543,0,0,0-23.95583,16.15841,32.75581,32.75581,0,0,0-7.10023,11.05553l-2.01769,7.49455a19.19878,19.19878,0,0,0,2.84661,13.37607l4.8455,4.78827a25.329,25.329,0,0,0,14.19489,3.79857Z"/><path class="cls-1" d="M5430.47013,2411.07177a286.31053,286.31053,0,0,0,16.40037,45.12494,247.22952,247.22952,0,0,0,20.05015,36.00465q6.50644,9.68224,13.91483,18.71381a14.36953,14.36953,0,0,0,8.0906,6.21918,19.365,19.365,0,0,0,10.94978,2.36766,32.756,32.756,0,0,0,12.9103-2.44175,39.5933,39.5933,0,0,0,13.188-6.28525l7.76279-6.31864a44.2489,44.2489,0,0,0,10.10532-14.61l2.01769-7.49456a19.19874,19.19874,0,0,0-2.84662-13.37607,246,246,0,0,1-30.26781-46.90918q-3.49786-7.06663-6.54038-14.34592l2.62445,6.28638a246.34909,246.34909,0,0,1-8.90171-25.0196q-1.07211-3.62514-2.031-7.28231a13.072,13.072,0,0,0-5.04719-8.68052,14.58094,14.58094,0,0,0-8.913-5.256,25.52071,25.52071,0,0,0-11.94911-.44323,33.72825,33.72825,0,0,0-13.08727,3.403l-8.76654,4.83053a52.073,52.073,0,0,0-13.773,13.42767l-4.09515,7.501a25.329,25.329,0,0,0-1.79552,14.58424Z"/><path class="cls-1" d="M5555.14018,2371.996q-9.61989,25.85466-19.74476,51.51751-10.08066,25.5443-20.66215,50.88715-10.62888,25.45641-21.75889,50.69971-11.079,25.12743-22.65033,50.03388-11.57066,24.90483-23.62954,49.57893-1.53468,3.14013-3.07722,6.27642a19.365,19.365,0,0,0-1.90661,11.0394,16.12166,16.12166,0,0,0,10.82614,16.0504,19.365,19.365,0,0,0,10.94978,2.36766l8.48888-.987a52.07293,52.07293,0,0,0,17.60936-7.74l7.7628-6.31864a44.24892,44.24892,0,0,0,10.10531-14.61q12.17283-24.75537,23.85931-49.74579,11.63073-24.87683,22.771-49.97909,11.19016-25.21473,21.88114-50.64708,10.64187-25.31564,20.78484-50.83715,10.14226-25.5199,19.78143-51.23594,1.22671-3.27275,2.44523-6.54855a19.36505,19.36505,0,0,0,1.90661-11.0394,16.12169,16.12169,0,0,0-10.82614-16.0504,19.365,19.365,0,0,0-10.94978-2.36766l-8.48888.987a52.073,52.073,0,0,0-17.60937,7.74l-7.76279,6.31864a44.24894,44.24894,0,0,0-10.10532,14.61Z"/><path class="cls-1" d="M2945.90905,3092.62335a32.756,32.756,0,0,0,12.9103-2.44175,49.31543,49.31543,0,0,0,23.95583-16.15841,32.75611,32.75611,0,0,0,7.10023-11.05553l2.01769-7.49455a19.19874,19.19874,0,0,0-2.84662-13.37607l-4.84549-4.78826a25.329,25.329,0,0,0-14.19489-3.79858,32.756,32.756,0,0,0-12.9103,2.44175,49.31543,49.31543,0,0,0-23.95583,16.15841,32.75611,32.75611,0,0,0-7.10023,11.05553l-2.01769,7.49455a19.19874,19.19874,0,0,0,2.84662,13.37607l4.84549,4.78826a25.329,25.329,0,0,0,14.19489,3.79858Z"/><path class="cls-1" d="M3118.7087,3098.79476a32.75593,32.75593,0,0,0,12.9103-2.44174,49.31536,49.31536,0,0,0,23.95583-16.15842,32.75592,32.75592,0,0,0,7.10023-11.05552l2.01769-7.49456a19.19875,19.19875,0,0,0-2.84661-13.37606l-4.8455-4.78827a25.329,25.329,0,0,0-14.19489-3.79857,32.75589,32.75589,0,0,0-12.91029,2.44175,49.31534,49.31534,0,0,0-23.95584,16.15841,32.75589,32.75589,0,0,0-7.10022,11.05552l-2.0177,7.49456a19.19876,19.19876,0,0,0,2.84662,13.37606l4.8455,4.78827a25.329,25.329,0,0,0,14.19488,3.79857Z"/><path class="cls-1" d="M3316.194,3111.13759a32.756,32.756,0,0,0,12.9103-2.44174,49.31543,49.31543,0,0,0,23.95583-16.15841,32.75611,32.75611,0,0,0,7.10023-11.05553l2.01769-7.49455a19.19878,19.19878,0,0,0-2.84662-13.37607l-4.8455-4.78827a25.329,25.329,0,0,0-14.19488-3.79857,32.756,32.756,0,0,0-12.9103,2.44175,49.31525,49.31525,0,0,0-23.95583,16.15841,32.75607,32.75607,0,0,0-7.10023,11.05552l-2.01769,7.49456a19.19879,19.19879,0,0,0,2.84661,13.37607l4.8455,4.78826a25.32887,25.32887,0,0,0,14.19489,3.79857Z"/><path class="cls-1" d="M3464.308,3104.96618h6.17141a32.75594,32.75594,0,0,0,12.9103-2.44175,49.31525,49.31525,0,0,0,23.95583-16.15841,32.75592,32.75592,0,0,0,7.10023-11.05552l2.01769-7.49456a19.19879,19.19879,0,0,0-2.84661-13.37607l-4.8455-4.78826a25.329,25.329,0,0,0-14.19489-3.79857h-6.17141a32.7559,32.7559,0,0,0-12.9103,2.44174,49.31543,49.31543,0,0,0-23.95583,16.15841,32.756,32.756,0,0,0-7.10023,11.05553l-2.01769,7.49456a19.19876,19.19876,0,0,0,2.84661,13.37606l4.8455,4.78827a25.329,25.329,0,0,0,14.19489,3.79857Z"/><path class="cls-1" d="M3637.10766,3117.309a32.75606,32.75606,0,0,0,12.91029-2.44174,49.31545,49.31545,0,0,0,23.95584-16.15842,32.75589,32.75589,0,0,0,7.10022-11.05552l2.0177-7.49456a19.19876,19.19876,0,0,0-2.84662-13.37606l-4.8455-4.78827a25.329,25.329,0,0,0-14.19488-3.79857,32.75593,32.75593,0,0,0-12.9103,2.44174,49.31536,49.31536,0,0,0-23.95583,16.15842,32.75592,32.75592,0,0,0-7.10023,11.05552l-2.01769,7.49456a19.19875,19.19875,0,0,0,2.84661,13.37606l4.8455,4.78827a25.329,25.329,0,0,0,14.19489,3.79857Z"/><path class="cls-1" d="M3809.90731,3111.13759a32.756,32.756,0,0,0,12.9103-2.44174,49.31543,49.31543,0,0,0,23.95583-16.15841,32.75611,32.75611,0,0,0,7.10023-11.05553l2.01769-7.49455a19.19878,19.19878,0,0,0-2.84662-13.37607l-4.8455-4.78827a25.329,25.329,0,0,0-14.19488-3.79857,32.756,32.756,0,0,0-12.9103,2.44175,49.31525,49.31525,0,0,0-23.95583,16.15841,32.75607,32.75607,0,0,0-7.10023,11.05552l-2.01769,7.49456a19.19874,19.19874,0,0,0,2.84662,13.37607l4.84549,4.78826a25.32889,25.32889,0,0,0,14.19489,3.79857Z"/><path class="cls-1" d="M4007.39263,3111.13759a32.75589,32.75589,0,0,0,12.91029-2.44174,49.31543,49.31543,0,0,0,23.95583-16.15841,32.75581,32.75581,0,0,0,7.10023-11.05553l2.0177-7.49455a19.19884,19.19884,0,0,0-2.84662-13.37607l-4.8455-4.78827a25.329,25.329,0,0,0-14.19488-3.79857,32.75591,32.75591,0,0,0-12.9103,2.44175,49.31525,49.31525,0,0,0-23.95583,16.15841,32.75592,32.75592,0,0,0-7.10023,11.05552l-2.01769,7.49456a19.19879,19.19879,0,0,0,2.84661,13.37607l4.8455,4.78826a25.32885,25.32885,0,0,0,14.19489,3.79857Z"/><path class="cls-1" d="M4136.99236,3111.13759a32.7559,32.7559,0,0,0,12.9103-2.44174,49.31543,49.31543,0,0,0,23.95583-16.15841,32.756,32.756,0,0,0,7.10023-11.05553l2.01769-7.49455a19.19878,19.19878,0,0,0-2.84661-13.37607l-4.8455-4.78827a25.329,25.329,0,0,0-14.19489-3.79857,32.75589,32.75589,0,0,0-12.91029,2.44175,49.31525,49.31525,0,0,0-23.95583,16.15841,32.75577,32.75577,0,0,0-7.10023,11.05552l-2.0177,7.49456a19.19885,19.19885,0,0,0,2.84662,13.37607l4.8455,4.78826a25.32884,25.32884,0,0,0,14.19488,3.79857Z"/><path class="cls-1" d="M4322.13485,3117.309a32.75615,32.75615,0,0,0,12.9103-2.44174,49.31536,49.31536,0,0,0,23.95583-16.15842,32.75607,32.75607,0,0,0,7.10023-11.05552l2.01769-7.49456a19.19876,19.19876,0,0,0-2.84662-13.37606l-4.8455-4.78827a25.329,25.329,0,0,0-14.19488-3.79857,32.756,32.756,0,0,0-12.9103,2.44174,49.31536,49.31536,0,0,0-23.95583,16.15842,32.75607,32.75607,0,0,0-7.10023,11.05552l-2.01769,7.49456a19.19875,19.19875,0,0,0,2.84661,13.37606l4.8455,4.78827a25.329,25.329,0,0,0,14.19489,3.79857Z"/><path class="cls-1" d="M4457.906,3123.48043a32.75594,32.75594,0,0,0,12.9103-2.44175,49.31543,49.31543,0,0,0,23.95583-16.15841,32.756,32.756,0,0,0,7.10023-11.05553l2.01769-7.49455a19.19879,19.19879,0,0,0-2.84661-13.37607l-4.8455-4.78826a25.32885,25.32885,0,0,0-14.19489-3.79857,32.75589,32.75589,0,0,0-12.91029,2.44174,49.31543,49.31543,0,0,0-23.95583,16.15841,32.75581,32.75581,0,0,0-7.10023,11.05553l-2.0177,7.49455a19.19885,19.19885,0,0,0,2.84662,13.37607l4.8455,4.78826a25.32893,25.32893,0,0,0,14.19488,3.79858Z"/><path class="cls-1" d="M4581.33433,3129.65184a32.75589,32.75589,0,0,0,12.91029-2.44174,49.31543,49.31543,0,0,0,23.95583-16.15841,32.75581,32.75581,0,0,0,7.10023-11.05553l2.0177-7.49456a19.19881,19.19881,0,0,0-2.84662-13.37606l-4.8455-4.78827a25.329,25.329,0,0,0-14.19488-3.79857,32.75594,32.75594,0,0,0-12.9103,2.44175,49.31525,49.31525,0,0,0-23.95583,16.15841,32.75592,32.75592,0,0,0-7.10023,11.05552l-2.01769,7.49456a19.19879,19.19879,0,0,0,2.84661,13.37607l4.8455,4.78826a25.329,25.329,0,0,0,14.19489,3.79857Z"/><path class="cls-1" d="M4797.33389,3123.48043a32.756,32.756,0,0,0,12.9103-2.44175A49.31543,49.31543,0,0,0,4834.2,3104.88027a32.75611,32.75611,0,0,0,7.10023-11.05553l2.01769-7.49455a19.19879,19.19879,0,0,0-2.84661-13.37607l-4.8455-4.78826a25.32887,25.32887,0,0,0-14.19489-3.79857,32.756,32.756,0,0,0-12.9103,2.44174,49.31543,49.31543,0,0,0-23.95583,16.15841,32.75611,32.75611,0,0,0-7.10023,11.05553l-2.01769,7.49455a19.19879,19.19879,0,0,0,2.84662,13.37607l4.8455,4.78826a25.32893,25.32893,0,0,0,14.19488,3.79858Z"/><path class="cls-1" d="M5013.33346,3123.48043a32.75589,32.75589,0,0,0,12.91029-2.44175,49.31543,49.31543,0,0,0,23.95583-16.15841,32.75581,32.75581,0,0,0,7.10023-11.05553l2.0177-7.49455a19.19885,19.19885,0,0,0-2.84662-13.37607l-4.8455-4.78826a25.32884,25.32884,0,0,0-14.19488-3.79857,32.7559,32.7559,0,0,0-12.9103,2.44174,49.31543,49.31543,0,0,0-23.95583,16.15841,32.756,32.756,0,0,0-7.10023,11.05553l-2.01769,7.49455a19.19879,19.19879,0,0,0,2.84661,13.37607l4.8455,4.78826a25.32894,25.32894,0,0,0,14.19489,3.79858Z"/><path class="cls-1" d="M5124.419,3123.48043a32.75589,32.75589,0,0,0,12.91029-2.44175,49.31543,49.31543,0,0,0,23.95583-16.15841,32.75581,32.75581,0,0,0,7.10023-11.05553l2.0177-7.49455a19.19885,19.19885,0,0,0-2.84662-13.37607l-4.8455-4.78826a25.32884,25.32884,0,0,0-14.19488-3.79857,32.75593,32.75593,0,0,0-12.9103,2.44174,49.31543,49.31543,0,0,0-23.95583,16.15841,32.756,32.756,0,0,0-7.10023,11.05553l-2.01769,7.49455a19.19879,19.19879,0,0,0,2.84661,13.37607l4.8455,4.78826a25.32894,25.32894,0,0,0,14.19489,3.79858Z"/><path class="cls-1" d="M3941.23221,3254.893l29.93492,31.95507,29.93491,31.95508,29.93491,31.95507,29.93492,31.95507,3.74186,3.99439a79.66475,79.66475,0,0,0,7.97546,7.80176,13.64861,13.64861,0,0,0,1.81748,1.25437c.31007.17562.62909.32746.95289.47585,2.03854.93418,4.59465,2.14539,6.6839,2.942.194.074.38817.14646.58684.20717a7.1689,7.1689,0,0,0,.9957.22341,53.82774,53.82774,0,0,0,8.51523.9927,52.68422,52.68422,0,0,0,9.31008-1.05277c.1389-.026.27623-.04919.41406-.08215q.16572-.03852.32764-.09052l8.84284-2.90945c6.75417-2.74882,12.02157-6.75205,17.36584-11.59625.14411-.13063.27986-.25965.4152-.40014.76289-.79191,5.457-6.34528,6.08353-7.19842.069-.09394.13557-.18819.201-.28455a35.38139,35.38139,0,0,0,4.53075-8.4725c.51221-1.55317,1.67925-5.99439,2.051-7.61065.02726-.11852.05908-.23514.08217-.35471a5.12316,5.12316,0,0,0,.07905-.605,40.01268,40.01268,0,0,0-.25592-8.17678,5.39411,5.39411,0,0,0-.28959-1.10787c-1.84766-5.15048-3.47186-9.50486-8.60512-12.4067a30.51211,30.51211,0,0,0-6.84139-2.98232l-.09308-.01769q-1.9714-.25893-3.94749-.48085c-1.67385-.20351-2.67645-.41833-4.04881-.47714-5.90192-.25289-12.87371,1.92954-18.19719,4.09588a41.91642,41.91642,0,0,0-12.64793,7.98985,38.62685,38.62685,0,0,0-9.89158,10.26835,26.38357,26.38357,0,0,0-5.104,11.24829,18.76127,18.76127,0,0,0-.78668,10.837l2.62445,6.28638a19.19877,19.19877,0,0,0,11.33571,7.6501l7.70467.93674a44.24884,44.24884,0,0,0,17.33171-3.89647q.1121-.04857.228-.08707l-8.84283,2.90945a2.94023,2.94023,0,0,1,.43288-.09868l-8.48888.987a2.37361,2.37361,0,0,1,.401-.00489l-7.70468-.93673a2.01161,2.01161,0,0,1,.45482.11333l-6.49021-2.86183a2.077,2.077,0,0,1,.61509.41977l-4.8455-4.78826a3.14879,3.14879,0,0,1,.60467.9496l-2.62444-6.28639a5.04526,5.04526,0,0,1,.33575,1.70767l-.22217-7.08968a5.54272,5.54272,0,0,1-.17363,1.447l2.0177-7.49456a4.6891,4.6891,0,0,1-.3506.88548l4.09515-7.501a3.97366,3.97366,0,0,1-.39265.576l6.01017-7.109a3.58258,3.58258,0,0,1-.4152.40013l7.76279-6.31863a3.59444,3.59444,0,0,1-.39134.25632l8.76653-4.83054a3.63433,3.63433,0,0,1-.44517.19077l8.84283-2.90945a6.08884,6.08884,0,0,1-.94791.20116l8.48888-.987a6.53042,6.53042,0,0,1-1.224.00607l7.70468.93673a7.53268,7.53268,0,0,1-1.97778-.53551l6.49021,2.86184a15.53477,15.53477,0,0,1-4.44842-3.23682l4.84549,4.78826c-2.04907-2.02858-3.97105-4.196-5.94214-6.30015l-6.08053-6.49088-12.2546-13.0816-24.32212-25.9635-24.50921-26.16322-24.32212-25.96349-24.50921-26.16322-2.99349-3.19551a14.36953,14.36953,0,0,0-8.0906-6.21918,19.36491,19.36491,0,0,0-10.94978-2.36765,32.756,32.756,0,0,0-12.9103,2.44174,39.59332,39.59332,0,0,0-13.18795,6.28526l-7.76279,6.31864a44.2488,44.2488,0,0,0-10.10532,14.61l-2.01769,7.49455a19.19878,19.19878,0,0,0,2.84661,13.37607Z"/><path class="cls-1" d="M4107.25668,3213.70918q-15.2369,15.06114-29.82978,30.75525-14.58642,15.69174-28.50046,31.99106c-11.22266,13.147-22.28084,26.42682-32.94278,40.03369q-13.21395,16.86378-25.70691,34.27624-12.48913,17.40733-24.2326,35.33385-1.43582,2.19181-2.86017,4.3911a26.38371,26.38371,0,0,0-5.104,11.24829,18.76134,18.76134,0,0,0-.78667,10.837,13.072,13.072,0,0,0,5.04719,8.68051,14.581,14.581,0,0,0,8.913,5.256l7.70468.93674a44.249,44.249,0,0,0,17.33171-3.89647l8.76653-4.83053a52.073,52.073,0,0,0,13.773-13.42768q13.66053-21.08508,28.35251-41.47688,14.64406-20.31914,30.28035-39.898,8.80105-11.0199,17.9063-21.792l-6.01017,7.109q11.39475-13.47645,23.25011-26.5539,11.907-13.1301,24.26916-25.8376,6.93234-7.1257,14.00409-14.11386a33.72856,33.72856,0,0,0,8.05775-10.85954,25.52068,25.52068,0,0,0,4.06526-11.24506,14.58094,14.58094,0,0,0-1.53439-10.23288,13.072,13.072,0,0,0-6.15772-7.93145l-6.49022-2.86184a34.52408,34.52408,0,0,0-16.19355.05029L4123.786,3202.56a55.8147,55.8147,0,0,0-16.52933,11.14918Z"/><path class="cls-1" d="M3171.70037,1340.70494a32.75593,32.75593,0,0,0,12.9103-2.44174,49.31536,49.31536,0,0,0,23.95583-16.15842,32.75592,32.75592,0,0,0,7.10023-11.05552l2.01769-7.49456a19.19875,19.19875,0,0,0-2.84661-13.37606l-4.8455-4.78827a25.329,25.329,0,0,0-14.19489-3.79857,32.75589,32.75589,0,0,0-12.91029,2.44175,49.31525,49.31525,0,0,0-23.95583,16.15841,32.75577,32.75577,0,0,0-7.10023,11.05552l-2.0177,7.49456a19.19881,19.19881,0,0,0,2.84662,13.37606l4.8455,4.78827a25.329,25.329,0,0,0,14.19488,3.79857Z"/><path class="cls-1" d="M3050.116,1340.70494a32.75593,32.75593,0,0,0,12.9103-2.44174,49.31536,49.31536,0,0,0,23.95583-16.15842,32.75592,32.75592,0,0,0,7.10023-11.05552l2.01769-7.49456a19.19875,19.19875,0,0,0-2.84661-13.37606l-4.8455-4.78827a25.329,25.329,0,0,0-14.19489-3.79857,32.75589,32.75589,0,0,0-12.91029,2.44175,49.31534,49.31534,0,0,0-23.95584,16.15841,32.75589,32.75589,0,0,0-7.10022,11.05552l-2.0177,7.49456a19.19876,19.19876,0,0,0,2.84662,13.37606l4.8455,4.78827a25.329,25.329,0,0,0,14.19488,3.79857Z"/><path class="cls-1" d="M2916.37322,1344.75775a32.75589,32.75589,0,0,0,12.91029-2.44174,49.31543,49.31543,0,0,0,23.95583-16.15841,32.75581,32.75581,0,0,0,7.10023-11.05553l2.0177-7.49456a19.19882,19.19882,0,0,0-2.84662-13.37606l-4.8455-4.78827a25.329,25.329,0,0,0-14.19488-3.79857,32.75591,32.75591,0,0,0-12.9103,2.44175,49.31525,49.31525,0,0,0-23.95583,16.15841,32.75592,32.75592,0,0,0-7.10023,11.05552l-2.01769,7.49456a19.19879,19.19879,0,0,0,2.84661,13.37607l4.8455,4.78826a25.32893,25.32893,0,0,0,14.19489,3.79857Z"/><path class="cls-1" d="M2774.52479,1340.70494a32.7559,32.7559,0,0,0,12.9103-2.44174,49.31536,49.31536,0,0,0,23.95583-16.15842,32.75577,32.75577,0,0,0,7.10023-11.05552l2.01769-7.49456a19.19875,19.19875,0,0,0-2.84661-13.37606l-4.8455-4.78827a25.329,25.329,0,0,0-14.19489-3.79857,32.75589,32.75589,0,0,0-12.91029,2.44175,49.31525,49.31525,0,0,0-23.95583,16.15841,32.75577,32.75577,0,0,0-7.10023,11.05552l-2.0177,7.49456a19.19881,19.19881,0,0,0,2.84662,13.37606l4.8455,4.78827a25.329,25.329,0,0,0,14.19488,3.79857Z"/><path class="cls-1" d="M2754.26073,2852.40383a32.75591,32.75591,0,0,0,12.9103-2.44175,49.31543,49.31543,0,0,0,23.95583-16.15841,32.75581,32.75581,0,0,0,7.10023-11.05553l2.01769-7.49455a19.19879,19.19879,0,0,0-2.84661-13.37607l-4.8455-4.78826a25.32885,25.32885,0,0,0-14.19489-3.79857,32.75589,32.75589,0,0,0-12.91029,2.44174,49.31543,49.31543,0,0,0-23.95583,16.15841,32.75581,32.75581,0,0,0-7.10023,11.05553l-2.0177,7.49455a19.19885,19.19885,0,0,0,2.84662,13.37607l4.8455,4.78826a25.32893,25.32893,0,0,0,14.19488,3.79858Z"/><path class="cls-1" d="M2746.15511,2690.29135a32.75615,32.75615,0,0,0,12.9103-2.44175,49.31543,49.31543,0,0,0,23.95583-16.15841,32.75611,32.75611,0,0,0,7.10023-11.05553l2.01769-7.49455a19.19874,19.19874,0,0,0-2.84662-13.37607l-4.84549-4.78826a25.329,25.329,0,0,0-14.19489-3.79858,32.756,32.756,0,0,0-12.9103,2.44175,49.31543,49.31543,0,0,0-23.95583,16.15841,32.75611,32.75611,0,0,0-7.10023,11.05553l-2.01769,7.49455a19.19879,19.19879,0,0,0,2.84662,13.37607l4.8455,4.78826a25.32893,25.32893,0,0,0,14.19488,3.79858Z"/><path class="cls-1" d="M2742.1023,2503.862a32.756,32.756,0,0,0,12.9103-2.44174,49.31543,49.31543,0,0,0,23.95583-16.15841,32.75611,32.75611,0,0,0,7.10023-11.05553l2.01769-7.49456a19.19876,19.19876,0,0,0-2.84662-13.37606l-4.8455-4.78827a25.329,25.329,0,0,0-14.19488-3.79857,32.756,32.756,0,0,0-12.9103,2.44175,49.31525,49.31525,0,0,0-23.95583,16.15841,32.75607,32.75607,0,0,0-7.10023,11.05552l-2.01769,7.49456a19.19879,19.19879,0,0,0,2.84661,13.37607l4.8455,4.78826a25.329,25.329,0,0,0,14.19489,3.79857Z"/><path class="cls-1" d="M2742.1023,2317.43264a32.756,32.756,0,0,0,12.9103-2.44175,49.31525,49.31525,0,0,0,23.95583-16.15841,32.75607,32.75607,0,0,0,7.10023-11.05552l2.01769-7.49456a19.19879,19.19879,0,0,0-2.84662-13.37607l-4.8455-4.78826a25.329,25.329,0,0,0-14.19488-3.79857,32.756,32.756,0,0,0-12.9103,2.44174,49.31536,49.31536,0,0,0-23.95583,16.15842,32.756,32.756,0,0,0-7.10023,11.05552l-2.01769,7.49456a19.19875,19.19875,0,0,0,2.84661,13.37606l4.8455,4.78827a25.329,25.329,0,0,0,14.19489,3.79857Z"/><path class="cls-1" d="M2729.94386,2131.00329a32.75594,32.75594,0,0,0,12.9103-2.44175,49.31543,49.31543,0,0,0,23.95583-16.15841,32.756,32.756,0,0,0,7.10023-11.05553l2.01769-7.49455a19.19879,19.19879,0,0,0-2.84661-13.37607l-4.8455-4.78826a25.32894,25.32894,0,0,0-14.19489-3.79858,32.75607,32.75607,0,0,0-12.91029,2.44175,49.31552,49.31552,0,0,0-23.95584,16.15841,32.75593,32.75593,0,0,0-7.10022,11.05553l-2.0177,7.49455a19.19879,19.19879,0,0,0,2.84662,13.37607l4.8455,4.78826a25.32893,25.32893,0,0,0,14.19488,3.79858Z"/><path class="cls-1" d="M2721.83824,1920.25706a32.756,32.756,0,0,0,12.9103-2.44174,49.31536,49.31536,0,0,0,23.95583-16.15842,32.75607,32.75607,0,0,0,7.10023-11.05552l2.01769-7.49456a19.19876,19.19876,0,0,0-2.84662-13.37606l-4.8455-4.78827a25.329,25.329,0,0,0-14.19488-3.79857,32.756,32.756,0,0,0-12.9103,2.44174,49.31536,49.31536,0,0,0-23.95583,16.15842,32.75607,32.75607,0,0,0-7.10023,11.05552l-2.01769,7.49456a19.19875,19.19875,0,0,0,2.84661,13.37606l4.8455,4.78827a25.329,25.329,0,0,0,14.19489,3.79857Z"/><path class="cls-1" d="M2709.6798,1741.93333a32.75593,32.75593,0,0,0,12.9103-2.44174,49.31536,49.31536,0,0,0,23.95583-16.15842,32.75592,32.75592,0,0,0,7.10023-11.05552l2.01769-7.49456a19.19875,19.19875,0,0,0-2.84661-13.37606l-4.8455-4.78827a25.329,25.329,0,0,0-14.19489-3.79857,32.75589,32.75589,0,0,0-12.91029,2.44175,49.31534,49.31534,0,0,0-23.95584,16.15841,32.75589,32.75589,0,0,0-7.10022,11.05552l-2.0177,7.49456a19.19876,19.19876,0,0,0,2.84662,13.37606l4.8455,4.78827a25.329,25.329,0,0,0,14.19488,3.79857Z"/><path class="cls-1" d="M2701.57418,1555.504a32.756,32.756,0,0,0,12.9103-2.44175,49.31525,49.31525,0,0,0,23.95583-16.15841,32.75607,32.75607,0,0,0,7.10023-11.05552l2.01769-7.49456a19.19879,19.19879,0,0,0-2.84662-13.37607l-4.8455-4.78826a25.329,25.329,0,0,0-14.19488-3.79857,32.756,32.756,0,0,0-12.9103,2.44174,49.31543,49.31543,0,0,0-23.95583,16.15841,32.75611,32.75611,0,0,0-7.10023,11.05553l-2.01769,7.49456a19.19875,19.19875,0,0,0,2.84661,13.37606l4.8455,4.78827a25.329,25.329,0,0,0,14.19489,3.79857Z"/><path class="cls-1" d="M2697.52137,1373.12744a32.75589,32.75589,0,0,0,12.91029-2.44175,49.31525,49.31525,0,0,0,23.95583-16.15841,32.75577,32.75577,0,0,0,7.10023-11.05552l2.0177-7.49456a19.19885,19.19885,0,0,0-2.84662-13.37607l-4.8455-4.78826a25.32884,25.32884,0,0,0-14.19488-3.79857,32.75593,32.75593,0,0,0-12.9103,2.44174,49.31543,49.31543,0,0,0-23.95583,16.15841,32.756,32.756,0,0,0-7.10023,11.05553l-2.01769,7.49456a19.19876,19.19876,0,0,0,2.84661,13.37606l4.8455,4.78827a25.329,25.329,0,0,0,14.19489,3.79857Z"/><path class="cls-1" d="M2370.15636,2080.55657l49.4839,4.25228,49.26781,4.23372,27.8752,2.39539-21.66483-14.87322a20.60016,20.60016,0,0,1,.99378,5.5577l-.22217-7.08968a25.16452,25.16452,0,0,1-.84257,6.93029l2.0177-7.49456a38.80827,38.80827,0,0,1-3.40838,8.30161l4.09514-7.501c-3.04365,5.52736-7.10353,10.30476-11.07808,15.17l-13.45534,16.47064-27.18528,33.27741q-27.18527,33.27742-54.37055,66.55484l-30.48046,37.311a26.38357,26.38357,0,0,0-5.104,11.24829,18.76127,18.76127,0,0,0-.78668,10.837l2.62445,6.28638a19.19877,19.19877,0,0,0,11.33571,7.6501q38.59535,5.47874,77.388,9.49192,35.0704,3.63112,70.26287,5.91663,19.71852,1.27992,39.46136,2.13529a32.75594,32.75594,0,0,0,12.9103-2.44175,49.31525,49.31525,0,0,0,23.95583-16.15841,32.75592,32.75592,0,0,0,7.10023-11.05552l2.01769-7.49456a19.19879,19.19879,0,0,0-2.84661-13.37607l-4.8455-4.78826a25.329,25.329,0,0,0-14.19489-3.79857q-27.79153-1.20681-55.53806-3.24988-27.77036-2.04771-55.47022-4.93542-15.62892-1.62906-31.2285-3.52406l7.70468.93673q-18.60945-2.26271-37.17083-4.89773l8.06949,36.02172,30.61776-37.47911,30.61776-37.47911,30.61776-37.47911,30.48047-37.311c4.58061-5.60711,9.52186-11.06686,13.24608-17.30459,2.26086-3.78672,4.43965-7.66254,6.31722-11.65642a36.2313,36.2313,0,0,0,1.78019-4.51209,74.65287,74.65287,0,0,0,3.04435-11.9629,22.8503,22.8503,0,0,0,.21187-2.43322c.09736-3.049-.05376-6.14173-.25718-9.18055a19.97623,19.97623,0,0,0-.95874-4.86063,17.32177,17.32177,0,0,0-7.46994-11.07465,25.329,25.329,0,0,0-14.19489-3.79857l-49.48389-4.25229-49.26781-4.23371-27.87521-2.39539a32.75589,32.75589,0,0,0-12.91029,2.44174,49.31536,49.31536,0,0,0-23.95583,16.15842,32.75577,32.75577,0,0,0-7.10023,11.05552l-2.0177,7.49456a19.19881,19.19881,0,0,0,2.84662,13.37606l4.8455,4.78827a25.329,25.329,0,0,0,14.19488,3.79857Z"/><path class="cls-1" d="M2366.19624,2181.504l49.183,5.69019,48.9333,5.66131,27.71222,3.20615a32.75593,32.75593,0,0,0,12.9103-2.44174,49.31543,49.31543,0,0,0,23.95583-16.15841,32.756,32.756,0,0,0,7.10023-11.05553l2.01769-7.49455a19.19878,19.19878,0,0,0-2.84661-13.37607l-4.8455-4.78827a25.329,25.329,0,0,0-14.19489-3.79857l-49.183-5.69019-48.9333-5.66131-27.71222-3.20615a32.756,32.756,0,0,0-12.9103,2.44174,49.31543,49.31543,0,0,0-23.95583,16.15841,32.75611,32.75611,0,0,0-7.10023,11.05553l-2.01769,7.49455a19.19878,19.19878,0,0,0,2.84661,13.37607l4.8455,4.78827a25.329,25.329,0,0,0,14.19489,3.79857Z"/><path class="cls-1" d="M2875.83029,1020.78828c-6.07669,8.566-12.11956,17.17072-17.56169,26.1593q-2.02575,3.34586-3.92751,6.76476c-2.61075,4.70986-5.25,9.42361-7.64358,14.25213a127.67034,127.67034,0,0,0-6.04436,14.17755q-1.2759,3.614-2.28642,7.31289c-1.328,4.85962-2.73771,9.71648-3.66865,14.67389a72.75822,72.75822,0,0,0-1.36005,13.77456,105.2143,105.2143,0,0,0,1.36571,18.89576,68.38961,68.38961,0,0,0,3.33679,11.80841c3.65941,9.56467,7.88176,18.81231,14.98,26.32807a111.57861,111.57861,0,0,0,8.86608,8.60386,45.7895,45.7895,0,0,0,4.57476,3.415,42.21915,42.21915,0,0,0,5.05336,2.8275,92.39047,92.39047,0,0,0,11.59244,4.85633,39.14317,39.14317,0,0,0,5.64194,1.31795c3.51839.55111,7.06971.99289,10.62011,1.28258q2.07409.16923,4.158.13595c1.44184-.0207,2.8826-.10926,4.317-.25588,4.14779-.42395,8.33653-.823,12.45392-1.53618a74.654,74.654,0,0,0,8.305-1.96621c4.16921-1.22571,8.28448-2.65054,12.40223-4.02989q1.71328-.5739,3.40467-1.21069,3.33166-1.25623,6.55473-2.77892,1.63866-.77886,3.23911-1.63485c3.91823-2.09944,7.85751-4.18958,11.6718-6.47763a60.3512,60.3512,0,0,0,5.82989-3.96275c3.472-2.67919,6.8992-5.44052,10.20681-8.3218q1.34292-1.16982,2.60005-2.43343,1.25417-1.26312,2.40777-2.61894c2.68842-3.143,5.51533-6.23485,7.96382-9.58532.69075-.9452,1.34565-1.9185,1.94972-2.92148.26053-.43258.50816-.87217.75193-1.31433,1.617-2.933,3.3219-5.837,4.7901-8.851a36.01947,36.01947,0,0,0,2.29731-6.05395c1.24368-4.43888,2.70867-8.97951,3.17818-13.60893q.16578-1.63468.17806-3.28025c.02232-3.3209-.06152-6.66311-.32718-9.97495a30.39279,30.39279,0,0,0-1.178-6.33366,87.62754,87.62754,0,0,0-3.57584-8.94716,27.53756,27.53756,0,0,0-1.40474-2.86044,24.75787,24.75787,0,0,0-3.7146-4.93491l-4.8455-4.78826a18.76125,18.76125,0,0,0-10.34254-3.3302,17.26186,17.26186,0,0,0-8.09678.02514,33.72825,33.72825,0,0,0-13.08727,3.403l-8.76654,4.83053-7.76279,6.31864a33.72845,33.72845,0,0,0-8.05775,10.85954,25.52063,25.52063,0,0,0-4.06526,11.24506c-.93883,4.89953-1.69777,9.835-2.17575,14.80173a162.77,162.77,0,0,0-.28228,21.44865,81.116,81.116,0,0,0,1.70521,14.33133A91.4728,91.4728,0,0,0,2939.12,1180.17a45.75,45.75,0,0,0,6.79569,10.572,98.56686,98.56686,0,0,0,8.89055,8.86683,46.87253,46.87253,0,0,0,9.67347,6.62336,103.70473,103.70473,0,0,0,11.48926,5.061c5.91059,2.17887,12.3476,2.88546,18.57526,3.34263a34.01674,34.01674,0,0,0,5.67959-.04965c4.44454-.419,9.37976-.7316,13.81174-1.961,3.71593-1.03075,7.37506-2.28229,10.99843-3.59833a28.51007,28.51007,0,0,0,2.73015-1.1552c3.76174-1.82849,7.41983-3.886,11.00188-6.04408a29.62683,29.62683,0,0,0,2.64781-1.80145c3.36919-2.5634,6.70256-5.201,9.83981-8.04626q1.1813-1.07136,2.25347-2.25508a93.60729,93.60729,0,0,0,9.7139-11.9711,110.17673,110.17673,0,0,0,6.949-12.70191,57.55862,57.55862,0,0,0,2.42762-6.09966c7.88665-23.4625,8.6026-48.48926,7.29553-72.98393a220.62448,220.62448,0,0,0-12.511-62.42043q-1.31025-3.66456-2.75193-7.27994a13.072,13.072,0,0,0-5.0472-8.68052,14.58089,14.58089,0,0,0-8.913-5.256,25.52072,25.52072,0,0,0-11.94911-.44323,33.7283,33.7283,0,0,0-13.08728,3.403l-8.76653,4.83053a52.07285,52.07285,0,0,0-13.773,13.42767l-4.09514,7.501a25.329,25.329,0,0,0-1.79553,14.58424,220.25608,220.25608,0,0,1,14.2992,57.74146q.90475,8.38387,1.16949,16.81883l-.22217-7.08968a206.65552,206.65552,0,0,1-2.41064,39.81712c-.52085,3.15957-1.16928,6.29731-1.99314,9.39223l2.01769-7.49456a60.16094,60.16094,0,0,1-5.0149,12.97508l4.09514-7.501a40.5886,40.5886,0,0,1-4.435,6.55976l6.01018-7.109a34.069,34.069,0,0,1-4.356,4.3017l7.76279-6.31863a30.9494,30.9494,0,0,1-4.4664,3.01954l8.76653-4.83054a29.75828,29.75828,0,0,1-4.81559,2.086l8.84283-2.90945a31.32228,31.32228,0,0,1-5.947,1.296l8.48888-.987a35.32139,35.32139,0,0,1-8.182-.06017l7.70468.93673a42.24158,42.24158,0,0,1-11.67759-3.29411l6.49021,2.86183a47.11836,47.11836,0,0,1-13.78859-9.39267l4.8455,4.78826a47.14444,47.14444,0,0,1-10.15938-15.41729l2.62444,6.28638a72.32862,72.32862,0,0,1-5.08867-25.48039l.22217,7.08968a133.53773,133.53773,0,0,1,2.68956-28.86318l-65.02443,28.5634a25.36533,25.36533,0,0,1,5.11933,7.79535l-2.62445-6.28638a30.5536,30.5536,0,0,1,2.2195,10.62174l-.22217-7.08968a36.29984,36.29984,0,0,1-1.22228,10.28417l2.0177-7.49456a36.80557,36.80557,0,0,1-3.09364,7.77233l4.09514-7.501a40.87076,40.87076,0,0,1-4.56665,6.60771l6.01018-7.109a49.74406,49.74406,0,0,1-6.46217,6.306l7.7628-6.31864a62.58515,62.58515,0,0,1-8.95689,5.9974l8.76653-4.83054a86.12992,86.12992,0,0,1-14.58081,6.26533l8.84283-2.90944a75.64153,75.64153,0,0,1-14.64124,3.38942l8.48888-.987a46.73089,46.73089,0,0,1-10.79381.02257l7.70468.93673a40.14469,40.14469,0,0,1-11.09051-3.07194l6.49021,2.86184a45.42974,45.42974,0,0,1-13.37092-9.25522l4.8455,4.78826a59.93767,59.93767,0,0,1-12.75029-19.27641l2.62445,6.28639a68.15327,68.15327,0,0,1-5.24252-23.82814l.22217,7.08969a78.08848,78.08848,0,0,1,2.93792-22.58054l-2.0177,7.49456a127.035,127.035,0,0,1,11.32906-27.31451l-4.09514,7.501a289.84566,289.84566,0,0,1,16.87714-26.6152q2.58282-3.70307,5.20158-7.38087a26.38361,26.38361,0,0,0,5.104-11.24828,18.76127,18.76127,0,0,0,.78668-10.837,13.072,13.072,0,0,0-5.0472-8.68052,14.581,14.581,0,0,0-8.913-5.256l-7.70467-.93673a44.24887,44.24887,0,0,0-17.33172,3.89646l-8.76653,4.83054a52.07285,52.07285,0,0,0-13.773,13.42767Z"/><path class="cls-1" d="M2790.57482,2408.58871q31.60791-2.47,63.33373-2.79289,31.7022-.31771,63.37711,1.52114,17.83368,1.036,35.61841,2.75624a32.75589,32.75589,0,0,0,12.91029-2.44174,49.31552,49.31552,0,0,0,23.95584-16.15841,32.75593,32.75593,0,0,0,7.10022-11.05553l2.0177-7.49455a19.19879,19.19879,0,0,0-2.84662-13.37607l-4.8455-4.78827a25.329,25.329,0,0,0-14.19488-3.79857q-31.55745-3.04759-63.27207-3.95069-31.69109-.89745-63.39432.36181-17.84965.70966-35.66286,2.10438a32.75594,32.75594,0,0,0-12.9103,2.44175,49.31543,49.31543,0,0,0-23.95583,16.15841,32.756,32.756,0,0,0-7.10023,11.05553l-2.01769,7.49455a19.19879,19.19879,0,0,0,2.84661,13.37607l4.8455,4.78826a25.32894,25.32894,0,0,0,14.19489,3.79858Z"/><path class="cls-1" d="M3079.70655,2439.19422a372.87062,372.87062,0,0,1,39.51131,13.47476q5.46643,2.21268,10.8619,4.59476l-6.49021-2.86183a389.13959,389.13959,0,0,1,49.24092,26.14351,397.09233,397.09233,0,0,1,45.07241,32.87226q12.03636,10.14449,23.24569,21.21645l-4.8455-4.78827a395.53833,395.53833,0,0,1,36.70135,41.74716,382.24484,382.24484,0,0,1,30.26368,46.36609q7.572,13.68789,13.972,27.97919a14.36953,14.36953,0,0,0,8.09061,6.21919,19.365,19.365,0,0,0,10.94978,2.36765,32.75589,32.75589,0,0,0,12.91029-2.44174,39.59314,39.59314,0,0,0,13.188-6.28526l7.7628-6.31864a44.24892,44.24892,0,0,0,10.10531-14.61l2.0177-7.49456a19.19881,19.19881,0,0,0-2.84662-13.37606,375.95065,375.95065,0,0,0-32.31279-57.78505,391.58343,391.58343,0,0,0-41.77777-51.376,439.29722,439.29722,0,0,0-54.33276-48.27923,393.01171,393.01171,0,0,0-56.31158-34.85311,418.52667,418.52667,0,0,0-67.55316-27.44562q-3.94532-1.19733-7.9169-2.30525a25.52071,25.52071,0,0,0-11.94911-.44322,33.72842,33.72842,0,0,0-13.08727,3.403,41.91665,41.91665,0,0,0-12.64793,7.98986,38.6267,38.6267,0,0,0-9.89158,10.26835l-4.09514,7.501a25.32892,25.32892,0,0,0-1.79552,14.58424l2.62444,6.28638a19.19883,19.19883,0,0,0,11.33572,7.6501Z"/><path class="cls-1" d="M3375.9677,2754.4608q8.10347,16.82256,15.3021,34.0589l-2.62445-6.28638a701.78927,701.78927,0,0,1,48.38265,181.02855q3.34839,26.19828,4.70024,52.59807a13.072,13.072,0,0,0,5.04719,8.68051,14.581,14.581,0,0,0,8.913,5.256,25.52062,25.52062,0,0,0,11.94912.44322,33.72842,33.72842,0,0,0,13.08727-3.40295l8.76653-4.83054a52.07285,52.07285,0,0,0,13.773-13.42767l4.09514-7.501a25.329,25.329,0,0,0,1.79553-14.58423q-1.393-27.11248-4.88865-54.06-3.51442-27.04279-9.129-53.75691-5.58258-26.56775-13.20587-52.65151-7.61649-26.05705-17.23363-51.47289c-7.14923-18.88735-15.00637-37.54084-23.59562-55.81926q-1.46285-3.113-2.95665-6.21133a14.36959,14.36959,0,0,0-8.09061-6.21918,19.36491,19.36491,0,0,0-10.94978-2.36765,32.756,32.756,0,0,0-12.9103,2.44174,39.59332,39.59332,0,0,0-13.18795,6.28526l-7.76279,6.31863a44.249,44.249,0,0,0-10.10532,14.61005l-2.01769,7.49455a19.19879,19.19879,0,0,0,2.84662,13.37607Z"/><path class="cls-1" d="M3875.13191,2907.32117c-6.07545-14.51388-12.175-29.01877-18.5183-43.41813-6.36046-14.4384-12.965-28.7732-20.03113-42.88116-7.02166-14.01924-14.50021-27.81706-22.64557-41.21742a401.7638,401.7638,0,0,0-26.22726-38.25489,356.4011,356.4011,0,0,0-35.68076-39.01668c-11.60652-11.04977-24.21362-21.27688-38.57664-28.53878a161.25674,161.25674,0,0,0-16.95789-7.44181,80.83365,80.83365,0,0,0-11.43494-3.30744q-2.78555-.58056-5.60958-.93854c-4.3593-.56-8.74809-1.20937-13.14989-1.39453-6.5858-.277-13.22423.61031-19.71682,1.53079a83.40522,83.40522,0,0,0-14.405,3.77614,92.22784,92.22784,0,0,0-13.6935,5.34184,137.75677,137.75677,0,0,0-17.36209,10.11c-3.975,2.85441-7.71669,6.06725-11.48212,9.17267-1.36372,1.12468-2.69555,2.285-3.985,3.49433a159.20383,159.20383,0,0,0-12.92851,14.43669,92.09927,92.09927,0,0,0-6.28411,8.46224,174.531,174.531,0,0,0-9.20209,16.27471,95.54711,95.54711,0,0,0-4.39466,9.94361,192.92771,192.92771,0,0,0-5.76665,19.34544c-1.08571,4.16185-1.96022,8.37761-2.65578,12.62177a193.11918,193.11918,0,0,0-2.3187,25.84415c-.30651,10.97157.073,21.96335.5351,32.92421.34928,8.28436.83108,16.56737,1.66782,24.81817a211.2166,211.2166,0,0,0,3.84736,24.65383,169.59734,169.59734,0,0,0,9.767,29.17355,96.47794,96.47794,0,0,0,11.43791,20.398,85.0014,85.0014,0,0,0,7.06511,8.27708,138.194,138.194,0,0,0,12.59522,11.8343c7.449,5.95939,15.75042,9.99862,24.54144,13.64128,8.79439,3.64406,18.434,5.141,27.89832,5.57561,6.208.2851,12.51045-.58816,18.61524-1.49076,6.63792-.98143,13.11126-3.33055,19.37661-5.575,6.60541-2.36626,12.66741-6.00736,18.76253-9.41792a86.44985,86.44985,0,0,0,9.83325-6.46713,202.25845,202.25845,0,0,0,24.66734-21.68279c7.3655-7.72016,14.2849-15.90135,20.94882-24.22732a336.60123,336.60123,0,0,0,25.8632-37.61016c9.29691-15.53713,17.80483-31.575,25.84425-47.79571,6.904-13.92993,13.44588-28.035,20.00821-42.12787,6.57194-14.11357,13.16441-28.221,20.15748-42.13221q5.054-10.054,10.42823-19.94232l-4.09515,7.501q3.65928-6.69156,7.51074-13.27491a26.38357,26.38357,0,0,0,5.104-11.24829,18.76126,18.76126,0,0,0,.78668-10.837,13.07193,13.07193,0,0,0-5.0472-8.68051,14.581,14.581,0,0,0-8.913-5.256l-7.70467-.93674a44.249,44.249,0,0,0-17.33171,3.89647l-8.76654,4.83053a52.073,52.073,0,0,0-13.773,13.42768c-11.76106,20.0601-22.32708,40.80024-32.31063,61.79277-8.88152,18.67529-17.39161,37.52606-26.42744,56.12814-5.04185,10.37967-10.25141,20.67928-15.77425,30.81215l4.09514-7.501a386.09337,386.09337,0,0,1-30.01621,47.34074q-4.79826,6.37539-9.94478,12.47686l6.01018-7.109c-7.42016,8.763-15.32114,17.24913-24.2399,24.51173l7.76279-6.31864a92.23055,92.23055,0,0,1-13.34378,9.08557l8.76653-4.83053a67.0392,67.0392,0,0,1-11.06029,4.83039l8.84283-2.90944a56.08052,56.08052,0,0,1-10.6925,2.34074l8.48888-.987a55.2795,55.2795,0,0,1-12.27234-.053l7.70467.93674a63.059,63.059,0,0,1-17.54673-4.86572l6.49021,2.86184a78.8564,78.8564,0,0,1-23.35243-16.10549l4.84549,4.78827a92.012,92.012,0,0,1-19.661-29.84493l2.62445,6.28639c-7.95574-19.10677-10.72457-39.86174-12.03386-60.376q-.57769-9.05136-.84976-18.1201l.22217,7.08968c-.60391-19.8816.00346-40.0276,5.2-59.3395l-2.01769,7.49456a106.41684,106.41684,0,0,1,8.94606-22.729l-4.09515,7.501a93.93041,93.93041,0,0,1,10.53173-15.4291l-6.01017,7.109a84.0894,84.0894,0,0,1,10.64768-10.51836l-7.76279,6.31864a73.48121,73.48121,0,0,1,10.60716-7.2205l-8.76654,4.83053a65.13419,65.13419,0,0,1,10.97981-4.80009l-8.84283,2.90945a60.98974,60.98974,0,0,1,11.31112-2.49457l-8.48888.987a64.82028,64.82028,0,0,1,14.91173.03409l-7.70468-.93674a82.08661,82.08661,0,0,1,22.86,6.474l-6.49022-2.86183c14.146,6.25882,26.74283,15.54,38.18008,25.8613q4.72969,4.26822,9.262,8.74763l-4.8455-4.78827a319.00487,319.00487,0,0,1,29.18813,33.3292,408.21143,408.21143,0,0,1,24.77871,36.61717c7.7279,12.79325,14.85535,25.94272,21.56424,39.29639,6.71706,13.37,13.01547,26.94667,19.08062,40.6235,6.084,13.71934,11.93279,27.54133,17.73558,41.38145q1.06632,2.54326,2.131,5.08722a14.36951,14.36951,0,0,0,8.0906,6.21919,19.36507,19.36507,0,0,0,10.94978,2.36765,32.75594,32.75594,0,0,0,12.9103-2.44175,39.5932,39.5932,0,0,0,13.188-6.28525l7.76279-6.31864a44.2488,44.2488,0,0,0,10.10532-14.61l2.01769-7.49456a19.19875,19.19875,0,0,0-2.84661-13.37606Z"/><path class="cls-1" d="M2982.183,2251.907c-.75434-25.97767-1.981-51.92628-4.01162-77.83738q-2.79467-35.66119-7.363-71.15363-4.58788-35.64753-10.9577-71.03553c-3.79339-21.07332-7.60657-42.30806-13.63815-62.87875a243.492,243.492,0,0,0-12.67148-33.58645,128.13024,128.13024,0,0,0-15.24087-25.31695q-2.27581-2.907-4.74464-5.65326l2.62445,6.28638-.01473-.42459.22217,7.08968a8.81578,8.81578,0,0,1,.25717-1.98257l-2.01769,7.49456a9.31543,9.31543,0,0,1,.568-1.422l-4.09514,7.501a10.10122,10.10122,0,0,1,1.10229-1.58021l-6.01017,7.109a13.78024,13.78024,0,0,1,1.15059-1.11212l-7.76279,6.31863a16.84625,16.84625,0,0,1,2.08723-1.4259l-8.76654,4.83053a24.4445,24.4445,0,0,1,4.13432-1.77l-8.84283,2.90945a44.663,44.663,0,0,1,8.2389-1.56994l-8.48888.987q21.81127-2.51814,43.77145-3.33252,10.9701-.39995,21.9503-.36587a157.50932,157.50932,0,0,1,18.07624.67824l-7.70467-.93673a44.08311,44.08311,0,0,1,11.77877,2.95751l-6.49021-2.86183a22.77067,22.77067,0,0,1,6.88262,4.55423l-4.8455-4.78826a17.89742,17.89742,0,0,1,3.67286,5.60705l-2.62444-6.28638a20.31626,20.31626,0,0,1,1.25287,6.3899l-.22217-7.08968a36.16531,36.16531,0,0,1-1.31772,9.63718l2.01769-7.49456a146.30389,146.30389,0,0,1-13.10583,31.5606l4.09514-7.501a165.76292,165.76292,0,0,1-18.58379,27.06777l6.01018-7.109q-4.37673,5.14766-9.15357,9.9278a33.72842,33.72842,0,0,0-8.05774,10.85954,25.52082,25.52082,0,0,0-4.06527,11.24506l.22217,7.08968a17.32184,17.32184,0,0,0,7.47,11.07465,174.10637,174.10637,0,0,0,25.61908,10.94975c6.71188,2.35882,13.48115,4.57276,20.00372,7.43042l-6.49021-2.86183a63.2372,63.2372,0,0,1,18.89484,12.26216l-4.8455-4.78827a54.46522,54.46522,0,0,1,11.52326,17.26482l-2.62445-6.28639a67.37915,67.37915,0,0,1,5.00753,23.54493l-.22217-7.08968a74.12047,74.12047,0,0,1-2.46767,21.26591l2.0177-7.49455a81.61225,81.61225,0,0,1-6.99279,17.14346l4.09514-7.501a102.19958,102.19958,0,0,1-11.46677,16.63155l6.01017-7.109a133.44826,133.44826,0,0,1-17.42093,16.93744l7.76279-6.31864a176.28576,176.28576,0,0,1-16.67662,11.92451,39.59324,39.59324,0,0,0-10.76788,9.87316,32.75592,32.75592,0,0,0-7.10023,11.05552,19.365,19.365,0,0,0-1.90661,11.0394,14.36953,14.36953,0,0,0,2.73553,9.83122l4.8455,4.78827a25.329,25.329,0,0,0,14.19489,3.79857c9.48827-.30223,18.11888-3.67186,26.09824-8.727a249.2183,249.2183,0,0,0,24.86978-18.5945,133.74784,133.74784,0,0,0,15.55533-14.9201c6.62723-7.54511,13.14449-15.21468,18.11677-23.97519,4.7627-8.39126,9.29282-16.75179,11.88335-26.07586,2.4216-8.716,4.50236-17.18118,4.52287-26.263.01954-8.65749-.36169-17.35775-2.69618-25.73438a106.47946,106.47946,0,0,0-5.78006-15.02424,55.54926,55.54926,0,0,0-4.4621-8.06123,52.43821,52.43821,0,0,0-6.131-7.51793,85.0671,85.0671,0,0,0-11.97213-10.74666,69.82217,69.82217,0,0,0-10.59489-5.96367c-5.70339-2.63452-11.46226-5.11053-17.36763-7.24888-7.76965-2.81339-15.6729-5.27138-23.24512-8.60351l6.49022,2.86184c-2.21711-.99-4.39638-2.052-6.52895-3.21334l-4.4309,40.26893a214.44435,214.44435,0,0,0,42.11455-59.97378q3.14742-6.63176,5.68469-13.53124a125.33873,125.33873,0,0,0,5.97723-20.764c.7833-4.35361.52436-8.70242.28528-13.1186-.26212-4.84192-2.05854-8.73513-4.11044-13.23345a17.40914,17.40914,0,0,0-2.85066-4.4239,47.80188,47.80188,0,0,0-8.43-7.87109c-3.24091-2.1679-7.3361-3.73321-10.7928-5.13559a37.90066,37.90066,0,0,0-5.2718-1.69582,103.7139,103.7139,0,0,0-19.01571-2.46961c-10.423-.55392-20.95081-.29491-31.37853.02077q-16.80132.50862-33.55156,2.03357-12.10764,1.10333-24.18137,2.64149a35.85576,35.85576,0,0,0-4.866.9365,71.06859,71.06859,0,0,0-13.92333,4.8614,76.88751,76.88751,0,0,0-10.91621,6.20924c-7.53471,5.61024-9.51432,7.65317-15.24373,14.79734a40.985,40.985,0,0,0-7.94987,18.763c-.79454,4.94778-.19092,11.4191,3.15112,15.44278.84716,1.01994,1.74519,1.998,2.58985,3.02107q2.34019,2.83458,4.48753,5.8213a137.43592,137.43592,0,0,1,14.92515,27.15383l-2.62445-6.28638c6.55667,15.74213,10.81543,32.31463,14.355,48.96174,4.04347,19.017,7.49774,38.17249,10.64918,57.35583q9.82164,59.786,14.57767,120.25837,2.65567,33.78423,3.71356,67.66747l-.22217-7.08968q.053,1.71069.10263,3.42147a14.581,14.581,0,0,0,1.5344,10.23288,13.07192,13.07192,0,0,0,6.15772,7.93145,18.76126,18.76126,0,0,0,10.34255,3.33021,26.38354,26.38354,0,0,0,12.34121-.51866c9.35663-2.35617,18.66374-7.01056,25.37216-14.05861l6.01018-7.109a34.524,34.524,0,0,0,6.11283-14.99556Z"/><path class="cls-1" d="M3397.96768,2114.09036q-3.36936,1.28132-6.60887,2.86857c-5.02667,2.47421-9.952,5.20632-14.74458,8.10637-6.83347,4.135-13.04924,9.37048-19.08894,14.53812a98.67164,98.67164,0,0,0-10.24861,10.19333,185.96067,185.96067,0,0,0-14.51054,18.23266,196.62439,196.62439,0,0,0-11.28659,19.70775,150.80253,150.80253,0,0,0-6.78033,15.291c-2.03239,5.33287-3.79488,10.7661-5.35428,16.25518-2.23224,7.85752-4.31811,15.76451-6.07221,23.74377-2.405,10.94024-4.4384,21.99858-6.05292,33.0835-.78471,5.38766-1.42269,10.79966-1.78994,16.23278a187.49273,187.49273,0,0,0,.0582,23.0402,89.18942,89.18942,0,0,0,2.26224,15.92516,100.15945,100.15945,0,0,0,7.90417,20.94723c5.11486,10.27728,13.136,18.794,21.74455,26.25794a85.69008,85.69008,0,0,0,11.26,8.22442,146.91952,146.91952,0,0,0,18.82409,9.26264c11.87438,5.14593,24.32506,7.65741,37.18863,8.83277a53.8818,53.8818,0,0,0,8.90766.11511c4.01367-.29955,8.0476-.76913,12.02382-1.39271a40.721,40.721,0,0,0,4.3862-.93732,102.89837,102.89837,0,0,0,15.3241-5.25152,123.9436,123.9436,0,0,0,14.99721-8.19936,65.7086,65.7086,0,0,0,5.9669-4.28339c4.46688-3.57105,9.04578-7.12908,13.18018-11.11119a203.28927,203.28927,0,0,0,16.0426-18.14658,177.13554,177.13554,0,0,0,17.67728-26.07591c6.38226-11.5095,12.30653-23.0596,16.48058-35.5676,2.429-7.27878,4.44194-14.729,6.13811-22.20881a145.24766,145.24766,0,0,0,2.63829-15.399,136.12243,136.12243,0,0,0,.91324-15.58426,189.12081,189.12081,0,0,0-1.07281-22.04735,120.7762,120.7762,0,0,0-6.20894-26.46472,186.43,186.43,0,0,0-7.82683-18.7,121.61586,121.61586,0,0,0-6.70017-12.04062,118.18939,118.18939,0,0,0-8.00314-11.15449,169.60454,169.60454,0,0,0-13.82733-14.63153,103.354,103.354,0,0,0-21.45621-16.09544,150.2422,150.2422,0,0,0-18.22351-8.43185,25.52075,25.52075,0,0,0-11.94912-.44322,33.72846,33.72846,0,0,0-13.08727,3.403,41.91677,41.91677,0,0,0-12.64793,7.98986,38.627,38.627,0,0,0-9.89157,10.26835l-4.09514,7.501a25.329,25.329,0,0,0-1.79553,14.58424l2.62445,6.28638a19.19877,19.19877,0,0,0,11.33571,7.6501q1.75558.69426,3.48434,1.45188l-6.49021-2.86183a102.50869,102.50869,0,0,1,30.43571,20.93054l-4.8455-4.78826a117.89307,117.89307,0,0,1,21.40605,29.23843q2.38911,4.59429,4.38522,9.37692l-2.62445-6.28638a123.22846,123.22846,0,0,1,9.35831,43.24074l-.22217-7.08968a142.4323,142.4323,0,0,1-4.89452,40.98537l2.01769-7.49456a165.592,165.592,0,0,1-14.52522,36.04252l4.09514-7.501a178.44561,178.44561,0,0,1-20.22872,29.4974l6.01018-7.109a103.2358,103.2358,0,0,1-13.17433,13.20737l7.7628-6.31864a62.90884,62.90884,0,0,1-8.99678,6.13873l8.76654-4.83053a48.47265,48.47265,0,0,1-7.82871,3.44665l8.84284-2.90945a43.28171,43.28171,0,0,1-8.29829,1.82364l8.48888-.987a55.73263,55.73263,0,0,1-12.46064-.13563l7.70467.93673a101.56654,101.56654,0,0,1-28.3568-7.995l6.49021,2.86184a89.60311,89.60311,0,0,1-26.67144-17.79363l4.8455,4.78826a68.39752,68.39752,0,0,1-14.97638-21.983l2.62445,6.28638a83.76165,83.76165,0,0,1-5.85323-29.46l.22217,7.08969a170.1364,170.1364,0,0,1,2.04518-29.13669c1.43206-9.88108,3.23025-19.73019,5.27159-29.50283,1.17164-5.6091,2.47085-11.19126,3.95228-16.72694l-2.0177,7.49456a171.87494,171.87494,0,0,1,14.49066-37.57583l-4.09514,7.501a118.343,118.343,0,0,1,13.30273-19.506l-6.01018,7.109a100.07041,100.07041,0,0,1,12.8532-12.68009l-7.76279,6.31864a85.75436,85.75436,0,0,1,12.46274-8.45064l-8.76653,4.83053a78.12623,78.12623,0,0,1,9.79212-4.52864,41.91677,41.91677,0,0,0,12.64793-7.98986,38.62651,38.62651,0,0,0,9.89157-10.26835,26.38359,26.38359,0,0,0,5.104-11.24829,18.76126,18.76126,0,0,0,.78668-10.837l-2.62445-6.28638a19.19877,19.19877,0,0,0-11.33571-7.6501l-7.70467-.93674a44.24906,44.24906,0,0,0-17.33172,3.89647Z"/><path class="cls-1" d="M3358.14514,2301.047a227.72736,227.72736,0,0,0,25.54778.80958,304.62194,304.62194,0,0,0,33.60592-3.00227q7.146-.97438,14.21938-2.40237a38.62693,38.62693,0,0,0,13.2261-5.32471,41.91671,41.91671,0,0,0,12.14606-8.73391,33.72828,33.72828,0,0,0,8.05774-10.85954,25.52069,25.52069,0,0,0,4.06527-11.24506l-.22217-7.08968a17.3218,17.3218,0,0,0-7.47-11.07465l-6.49021-2.86183a34.52408,34.52408,0,0,0-16.19355.05028q-9.269,1.867-18.66852,2.96436l8.48888-.987a228.22422,228.22422,0,0,1-36.05728,1.31151q-5.08605-.2193-10.1584-.66783a32.75589,32.75589,0,0,0-12.91029,2.44175,49.31525,49.31525,0,0,0-23.95583,16.15841,32.75581,32.75581,0,0,0-7.10023,11.05553l-2.0177,7.49455a19.19885,19.19885,0,0,0,2.84662,13.37607l4.8455,4.78826a25.32884,25.32884,0,0,0,14.19488,3.79857Z"/></svg>