<?xml version="1.0" encoding="UTF-8" standalone="no"?>
<!-- Created with Inkscape (http://www.inkscape.org/) -->

<svg
   width="6in"
   height="4in"
   viewBox="0 100 152.4 201.6"
   version="1.1"
   id="svg8"
   inkscape:version="1.1 (c4e8f9e, 2021-05-24)"
   sodipodi:docname="launcher.svg"
   xmlns:inkscape="http://www.inkscape.org/namespaces/inkscape"
   xmlns:sodipodi="http://sodipodi.sourceforge.net/DTD/sodipodi-0.dtd"
   xmlns="http://www.w3.org/2000/svg"
   xmlns:svg="http://www.w3.org/2000/svg"
   xmlns:rdf="http://www.w3.org/1999/02/22-rdf-syntax-ns#"
   xmlns:cc="http://creativecommons.org/ns#"
   xmlns:dc="http://purl.org/dc/elements/1.1/">
  <defs
     id="defs2">
    <marker
       style="overflow:visible"
       id="Arrow1Lstart"
       refX="0.0"
       refY="0.0"
       orient="auto"
       inkscape:stockid="Arrow1Lstart"
       inkscape:isstock="true">
      <path
         transform="scale(0.8) translate(12.5,0)"
         style="fill-rule:evenodd;fill:context-stroke;stroke:context-stroke;stroke-width:1.0pt"
         d="M 0.0,0.0 L 5.0,-5.0 L -12.5,0.0 L 5.0,5.0 L 0.0,0.0 z "
         id="path1824" />
    </marker>
  </defs>
  <sodipodi:namedview
     id="base"
     pagecolor="#ffffff"
     bordercolor="#666666"
     borderopacity="1.0"
     inkscape:pageopacity="0.0"
     inkscape:pageshadow="2"
     inkscape:zoom="1.1802501"
     inkscape:cx="381.69876"
     inkscape:cy="113.11162"
     inkscape:document-units="in"
     inkscape:current-layer="layer1"
     showgrid="false"
     units="in"
     inkscape:window-width="844"
     inkscape:window-height="797"
     inkscape:window-x="566"
     inkscape:window-y="45"
     inkscape:window-maximized="0"
     inkscape:lockguides="true"
     fit-margin-top="0"
     fit-margin-left="0"
     fit-margin-right="0"
     fit-margin-bottom="0"
     inkscape:pagecheckerboard="0" />
  <metadata
     id="metadata5">
    <rdf:RDF>
      <cc:Work
         rdf:about="">
        <dc:format>image/svg+xml</dc:format>
        <dc:type
           rdf:resource="http://purl.org/dc/dcmitype/StillImage" />
        <dc:title />
      </cc:Work>
    </rdf:RDF>
  </metadata>
  <g
     inkscape:label="Layer 1"
     inkscape:groupmode="layer"
     id="layer1"
     transform="translate(0,0)">
    <path
       style="fill:none;stroke:#000000;stroke-width:0.525px;stroke-linecap:butt;stroke-linejoin:miter;stroke-opacity:1"
       d="m 11.625,120.475 -1.05,140.7 160.125,1.05"
       id="path40" />
    <path
       style="fill:none;stroke:#000000;stroke-width:0.525px;stroke-linecap:butt;stroke-linejoin:miter;stroke-opacity:1"
       d="m 11.625,120.475 c 0,0 17.325,70.875 76.65,71.925"
       id="path244" />
    <path
       style="fill:none;stroke:#cccccc;stroke-width:0.525px;stroke-linecap:butt;stroke-linejoin:miter;stroke-opacity:1"
       d="m 88.275,192.4 -1.61238,69.26262"
       id="path246" />
    <text
       xml:space="preserve"
       style="font-size:12.6145px;line-height:1.25;font-family:sans-serif;letter-spacing:0px;word-spacing:0px;stroke-width:0.315363"
       x="95.825356"
       y="228.32748"
       id="text4653"><tspan
         sodipodi:role="line"
         id="tspan4651"
         style="stroke-width:0.315363"
         x="95.825356"
         y="228.32748">h_0</tspan></text>
    <text
       xml:space="preserve"
       style="font-size:14.2146px;line-height:1.25;font-family:sans-serif;letter-spacing:0px;word-spacing:0px;stroke-width:0.355365"
       x="113.71307"
       y="283.65768"
       id="text8696"><tspan
         sodipodi:role="line"
         id="tspan8694"
         style="stroke-width:0.355365"
         x="113.71307"
         y="283.65768">d</tspan></text>
    <path
       style="fill:none;stroke:#000000;stroke-width:0.525px;stroke-linecap:butt;stroke-linejoin:miter;stroke-opacity:1"
       d="m 86.66262,261.66262 c 7.004897,5.93547 12.327478,6.72219 20.72171,5.52302 2.08258,-0.29752 4.39952,-1.08563 6.51373,-1.08563 0.18093,0 0.46189,-0.16183 0.54281,0 0.0803,0.16062 0.56215,6.47506 1.62843,4.34249 1.32065,-2.6413 -2.81035,0.93459 0.54281,-3.25686 1.31227,-1.64034 5.57372,-0.0706 7.05654,0 4.69903,0.22376 9.42803,-0.42592 14.11307,0 2.37008,0.21546 4.69124,0.82281 7.05653,1.08562 2.52404,0.28045 5.09086,0.14673 7.59935,0.54281 0.96245,0.15196 1.74948,0.94782 2.71406,1.08562 5.00312,0.71473 10.94765,-0.0915 14.65588,-3.79968 0.21503,-0.21502 -0.0974,-1.32397 0,-1.62842 0.24554,-0.76747 0.59497,-1.49773 0.89246,-2.24659"
       id="path8959" />
    <text
       xml:space="preserve"
       style="font-size:21px;line-height:1.25;font-family:sans-serif;letter-spacing:0px;word-spacing:0px;stroke-width:0.525"
       x="-22.347383"
       y="209.64772"
       id="text10693"><tspan
         sodipodi:role="line"
         id="tspan10691"
         style="stroke-width:0.525"
         x="-22.347383"
         y="209.64772">H</tspan></text>
    <path
       style="fill:none;stroke:#000000;stroke-width:0.525px;stroke-linecap:butt;stroke-linejoin:miter;stroke-opacity:1"
       d="m 93.012311,185.39852 c -2.663871,-0.73468 -5.254142,-0.0217 -7.658017,1.39237 -1.323441,0.7785 -2.629216,1.73925 -3.480918,3.0168 -0.473939,0.7109 -0.53508,1.75381 -0.232061,2.55267 1.316013,3.46949 4.113066,6.19001 8.122139,6.26565 2.401282,0.0453 4.792431,-0.82602 6.961836,-1.85649 5.25481,-2.49603 2.043867,-10.54232 -2.552671,-11.60306 -0.384326,-0.0887 -0.773535,0.15471 -1.160308,0.23206 z"
       id="path83" />
    <text
       xml:space="preserve"
       style="font-size:7.7px;line-height:1.25;font-family:sans-serif;letter-spacing:0px;word-spacing:0px;stroke-width:0.525"
       x="96.256065"
       y="159.16119"
       id="text1157"><tspan
         sodipodi:role="line"
         id="tspan1155"
         style="font-size:7.7px;stroke-width:0.525"
         x="96.256065"
         y="159.16119">- flat</tspan><tspan
         sodipodi:role="line"
         style="font-size:7.7px;stroke-width:0.525"
         x="96.256065"
         y="168.78619"
         id="tspan1159">- at any angle to maximize d</tspan></text>
    <path
       style="fill:none;stroke:#000000;stroke-width:0.525px;stroke-linecap:butt;stroke-linejoin:miter;stroke-opacity:1;marker-mid:url(#Arrow1Lstart)"
       d="m 90.569014,162.93387 c 0,0 -6.763922,11.17517 -4.705339,15.29234"
       id="path346" />
  </g>
</svg>
